HIERARCHY
ROOT Hips
{
    OFFSET 0.000000 0.000000 0.000000
    CHANNELS 6 Xposition Yposition Zposition Zrotation Xrotation Yrotation
    JOINT Spine
    {
        OFFSET -0.000000 7.583482 0.000000
        CHANNELS 3 Zrotation Xrotation Yrotation
        JOINT Spine1
        {
            OFFSET -0.000000 19.647881 0.000000
            CHANNELS 3 Zrotation Xrotation Yrotation
            JOINT Neck
            {
                OFFSET -0.000000 19.567190 1.778835
                CHANNELS 3 Zrotation Xrotation Yrotation
                JOINT Head
                {
                    OFFSET -0.000000 12.947408 -1.849630
                    CHANNELS 3 Zrotation Xrotation Yrotation
                    End Site
                    {
                        OFFSET -0.000000 23.120371 0.000000
                    }
                }
            }
            JOINT LeftShoulder
            {
                OFFSET 3.632882 16.008181 -0.342244
                CHANNELS 3 Zrotation Xrotation Yrotation
                JOINT LeftArm
                {
                    OFFSET 15.804684 0.000000 0.000000
                    CHANNELS 3 Zrotation Xrotation Yrotation
                    JOINT LeftForeArm
                    {
                        OFFSET 25.677923 0.000000 0.000000
                        CHANNELS 3 Zrotation Xrotation Yrotation
                        JOINT LeftHand
                        {
                            OFFSET 26.158810 0.000000 0.000000
                            CHANNELS 3 Zrotation Xrotation Yrotation
                            End Site
                            {
                                OFFSET 13.872223 0.000000 0.000000
                            }
                        }
                    }
                }
            }
            JOINT RightShoulder
            {
                OFFSET -3.700243 16.008181 -0.342244
                CHANNELS 3 Zrotation Xrotation Yrotation
                JOINT RightArm
                {
                    OFFSET -15.804684 0.000000 0.000000
                    CHANNELS 3 Zrotation Xrotation Yrotation
                    JOINT RightForeArm
                    {
                        OFFSET -25.677923 0.000000 0.000000
                        CHANNELS 3 Zrotation Xrotation Yrotation
                        JOINT RightHand
                        {
                            OFFSET -26.158810 0.000000 0.000000
                            CHANNELS 3 Zrotation Xrotation Yrotation
                            End Site
                            {
                                OFFSET -13.872223 0.000000 0.000000
                            }
                        }
                    }
                }
            }
        }
    }
    JOINT LeftUpLeg
    {
        OFFSET 9.248149 0.000000 0.000000
        CHANNELS 3 Zrotation Xrotation Yrotation
        JOINT LeftLeg
        {
            OFFSET -0.000000 -43.254459 0.000000
            CHANNELS 3 Zrotation Xrotation Yrotation
            JOINT LeftFoot
            {
                OFFSET -0.000000 -33.301838 0.000000
                CHANNELS 3 Zrotation Xrotation Yrotation
                JOINT LeftToeBase
                {
                    OFFSET -0.000000 -6.011296 13.872223
                    CHANNELS 3 Zrotation Xrotation Yrotation
                    End Site
                    {
                        OFFSET -0.000000 0.000000 3.699259
                    }
                }
            }
        }
    }
    JOINT RightUpLeg
    {
        OFFSET -9.248149 0.000000 0.000000
        CHANNELS 3 Zrotation Xrotation Yrotation
        JOINT RightLeg
        {
            OFFSET -0.000000 -43.254459 0.000000
            CHANNELS 3 Zrotation Xrotation Yrotation
            JOINT RightFoot
            {
                OFFSET -0.000000 -33.301838 0.000000
                CHANNELS 3 Zrotation Xrotation Yrotation
                JOINT RightToeBase
                {
                    OFFSET -0.000000 -6.011296 13.872223
                    CHANNELS 3 Zrotation Xrotation Yrotation
                    End Site
                    {
                        OFFSET -0.000000 0.000000 3.699259
                    }
                }
            }
        }
    }
}
MOTION
Frames:    9
Frame Time:    0.010000
-16.070646    75.120918    123.012634    -0.930199    -0.278246    170.287003    1.919030    -7.587637    0.666317    1.918204    30.416529    0.017521    -8.772273    12.306882    -1.735154    4.715440    -19.419334    -0.033305    15.172039    -15.634059    -23.217459    13.597932    11.920301    -42.898483    -4.053212    -49.716408    -49.996708    19.475977    -50.417702    4.649128    -26.878311    -13.383180    9.552588    -20.376858    13.839654    69.235199    -32.693352    -59.717762    20.936508    -29.150208    -50.608208    -36.391411    13.702435    -40.487705    6.374593    -5.191616    42.647316    -0.768841    16.409492    1.118012    -10.350031    0.000000    0.000000    0.000000    -8.981121    -11.663938    -19.881649    11.510154    55.978695    20.747223    -14.078330    -40.546322    -43.212402    0.000000    0.000000    0.000000    
-16.063456    75.116661    123.016045    -0.899692    -0.261131    170.280045    1.928704    -7.572589    0.655885    1.929825    30.425831    0.003460    -8.731323    12.304474    -1.730682    4.632450    -19.401279    -0.056134    15.158778    -15.647701    -23.200083    13.572777    11.895738    -42.911472    -4.050812    -49.679077    -49.983673    19.607870    -50.366344    4.738538    -26.886772    -13.385797    9.569764    -20.447878    13.873429    69.262619    -32.830605    -59.738895    20.807436    -29.262480    -50.595478    -36.508389    13.752115    -40.471104    6.400761    -5.204944    42.667912    -0.795016    16.405848    1.115591    -10.320579    0.000000    0.000000    0.000000    -8.945579    -11.640437    -19.869612    11.539574    55.961597    20.646080    -14.016900    -40.570110    -43.151665    0.000000    0.000000    0.000000    
-16.065153    75.118790    123.016525    -0.889149    -0.249121    170.262741    1.945263    -7.569058    0.651990    1.899087    30.451263    0.006558    -8.759278    12.288690    -1.732470    4.681116    -19.377224    -0.041666    15.172988    -15.641804    -23.184717    13.580132    11.880150    -42.892498    -4.060600    -49.683487    -50.002743    19.601004    -50.370350    4.774204    -26.882378    -13.393219    9.572953    -20.276535    13.779972    69.282623    -32.683105    -59.690716    20.917435    -29.227329    -50.550564    -36.452377    13.770556    -40.447983    6.396712    -5.224305    42.659435    -0.781476    16.411737    1.093610    -10.312654    0.000000    0.000000    0.000000    -8.934627    -11.625503    -19.875118    11.499176    55.954464    20.674305    -14.027434    -40.568451    -43.104656    0.000000    0.000000    0.000000    
-16.068167    75.117012    123.018921    -0.888631    -0.243943    170.248779    1.937486    -7.558853    0.648116    1.900980    30.445616    0.002899    -8.752280    12.283777    -1.733945    4.648604    -19.346212    -0.054289    15.160502    -15.630808    -23.175680    13.575220    11.874688    -42.895569    -4.055264    -49.676586    -49.994690    19.573439    -50.369789    4.708081    -26.899939    -13.385033    9.580305    -20.071484    13.695178    69.301888    -32.488548    -59.786793    21.081539    -28.985287    -50.775578    -36.142807    13.773690    -40.455151    6.426396    -5.201021    42.683857    -0.800053    16.427282    1.109316    -10.318357    0.000000    0.000000    0.000000    -8.937207    -11.633043    -19.874289    11.488115    55.971298    20.734858    -14.088567    -40.539146    -43.170162    0.000000    0.000000    0.000000    
-16.070135    75.116692    123.018524    -0.877177    -0.215707    170.234207    1.948104    -7.531856    0.646470    1.886630    30.462999    0.004657    -8.803962    12.286455    -1.746385    4.710938    -19.355762    -0.046001    15.166701    -15.644845    -23.148470    13.605938    11.917504    -42.907330    -4.066153    -49.724277    -50.022984    19.558964    -50.415932    4.755778    -26.914490    -13.410531    9.556178    -19.928032    13.636160    69.356956    -32.470116    -59.548252    21.077942    -29.030457    -50.453922    -36.225002    13.787621    -40.426991    6.424515    -5.220747    42.692993    -0.773904    16.412001    1.121578    -10.310670    0.000000    0.000000    0.000000    -8.925865    -11.602104    -19.847292    11.503972    55.951839    20.637743    -13.996817    -40.570335    -43.091515    0.000000    0.000000    0.000000    
-16.075254    75.116913    123.022461    -0.882718    -0.227015    170.234085    1.941078    -7.548485    0.628132    1.884504    30.468878    -0.013109    -8.717901    12.287759    -1.721662    4.553964    -19.354036    -0.071718    15.164653    -15.634595    -23.118898    13.597893    11.914861    -42.910374    -4.068533    -49.713520    -50.024902    19.557095    -50.410255    4.718307    -26.916822    -13.412550    9.580082    -19.910017    13.619764    69.370918    -32.390598    -59.724594    21.134842    -28.925701    -50.728302    -36.058853    13.768641    -40.442650    6.413570    -5.199806    42.688793    -0.782862    16.436888    1.127030    -10.316972    0.000000    0.000000    0.000000    -8.940995    -11.629650    -19.804846    11.583987    55.969151    20.580517    -14.008387    -40.549175    -43.108162    0.000000    0.000000    0.000000    
-16.079184    75.112579    123.024559    -0.891573    -0.216796    170.219650    1.910207    -7.545693    0.635452    1.912849    30.478191    -0.011589    -8.701951    12.269549    -1.724254    4.519248    -19.326553    -0.085200    15.161701    -15.644616    -23.136915    13.614570    11.970952    -42.881660    -3.662785    -49.433525    -49.768223    20.587906    -49.885429    5.508902    -26.913733    -13.405186    9.556494    -19.887335    13.577620    69.381805    -32.271225    -59.740139    21.230942    -28.881243    -50.750572    -36.082115    13.762509    -40.429127    6.386321    -5.220736    42.682438    -0.752024    16.409775    1.102251    -10.304226    0.000000    0.000000    0.000000    -8.959353    -11.647433    -19.837654    11.531643    56.027012    20.657948    -14.083608    -40.528160    -43.163044    0.000000    0.000000    0.000000    
-16.089895    75.108185    123.028801    -0.902609    -0.212038    170.201889    1.902599    -7.525082    0.647874    1.902769    30.450932    0.004923    -8.644390    12.282691    -1.729112    4.437794    -19.325966    -0.118512    15.161920    -15.648143    -23.163233    13.622725    11.989038    -42.883663    -3.590725    -49.405506    -49.727039    20.640461    -49.823936    5.589504    -26.911840    -13.406682    9.533177    -19.798790    13.548223    69.397064    -32.166908    -59.658203    21.328136    -28.833719    -50.676933    -35.951942    13.750393    -40.424393    6.362657    -5.240180    42.685467    -0.740961    16.389721    1.091619    -10.268035    0.000000    0.000000    0.000000    -8.979809    -11.660198    -19.885489    11.442851    56.051666    20.755886    -14.065503    -40.513363    -43.146873    0.000000    0.000000    0.000000    
-16.096125    75.106140    123.027977    -0.889110    -0.183676    170.178864    1.926683    -7.494689    0.655825    1.865036    30.450092    0.022153    -8.635669    12.288459    -1.730168    4.446297    -19.333324    -0.117471    15.179362    -15.652551    -23.164871    13.590811    11.950672    -42.880882    -4.035653    -49.658901    -50.023567    19.531191    -50.343395    4.753793    -26.916563    -13.432473    9.526852    -19.837980    13.587071    69.413223    -32.168129    -59.720085    21.317347    -28.766895    -50.769871    -35.958370    13.766093    -40.396183    6.370836    -5.244894    42.694359    -0.723625    16.390686    1.086304    -10.255531    0.000000    0.000000    0.000000    -8.967201    -11.614985    -19.845509    11.483500    56.012497    20.715448    -14.066653    -40.574482    -43.132683    0.000000    0.000000    0.000000    
